<svg viewBox="0 0 18 14" fill="none" xmlns="http://www.w3.org/2000/svg">
<path d="M15.3242 1.37364C14.1914 0.848719 12.9801 0.467226 11.7138 0.25C11.5583 0.528475 11.3766 0.903031 11.2513 1.20099C9.90516 1.00049 8.57139 1.00049 7.25001 1.20099C7.12476 0.903031 6.93895 0.528475 6.78203 0.25C5.51434 0.467226 4.3017 0.85012 3.16889 1.37642C0.88401 4.79603 0.264617 8.1307 0.574314 11.418C2.08977 12.5389 3.55842 13.2197 5.00229 13.6653C5.35879 13.1794 5.67674 12.6628 5.95065 12.1184C5.42899 11.9221 4.92934 11.6798 4.45724 11.3985C4.58249 11.3066 4.705 11.2106 4.82336 11.1117C7.70285 12.4456 10.8315 12.4456 13.6766 11.1117C13.7963 11.2106 13.9188 11.3066 14.0427 11.3985C13.5692 11.6812 13.0682 11.9234 12.5465 12.1198C12.8204 12.6628 13.137 13.1808 13.4949 13.6667C14.9401 13.2211 16.4102 12.5403 17.9256 11.418C18.289 7.60718 17.3049 4.30314 15.3242 1.37364ZM6.34294 9.39635C5.47855 9.39635 4.76967 8.59714 4.76967 7.62389C4.76967 6.65063 5.46341 5.85004 6.34294 5.85004C7.2225 5.85004 7.93134 6.64923 7.91621 7.62389C7.91757 8.59714 7.2225 9.39635 6.34294 9.39635ZM12.157 9.39635C11.2926 9.39635 10.5837 8.59714 10.5837 7.62389C10.5837 6.65063 11.2774 5.85004 12.157 5.85004C13.0365 5.85004 13.7454 6.64923 13.7303 7.62389C13.7303 8.59714 13.0365 9.39635 12.157 9.39635Z" fill="white"/>
</svg>
